<svg width="192" height="98" viewBox="0 0 192 98" fill="none" xmlns="http://www.w3.org/2000/svg">
<path d="M40.5517 72.5041C33.1034 72.5041 27.3103 78.0813 27.3103 85.252C27.3103 92.4227 33.1034 98 40.5517 98C48 98 53.7931 92.4227 53.7931 85.252C53.7931 78.0813 48 72.5041 40.5517 72.5041ZM119.172 0H112.552V15.5366H137.379L119.172 0ZM0.827511 87.6423H17.3792C17.3792 87.6423 18.2068 63.7398 42.2069 63.7398C60 63.7398 62.8965 87.6423 62.8965 87.6423H104.276V0H0L0.827511 87.6423ZM157.241 72.5041C149.793 72.5041 144 78.0813 144 85.252C144 92.4227 149.793 98 157.241 98C164.69 98 170.483 92.4227 170.483 85.252C170.483 78.0813 164.276 72.5041 157.241 72.5041ZM141.517 19.9187H112.552V87.6423H137.379C137.379 87.6423 134.069 67.7236 158.069 67.7236C176.276 67.7236 175.862 87.6423 175.862 87.6423H191.173L192 57.7642L141.517 19.9187ZM137.379 71.7073H120.828V63.7398H137.379V71.7073ZM135.724 57.3658L119.172 47.8049V25.4959H135.724L178.759 57.3658H135.724Z" fill="white" fill-opacity="0.4"/>
</svg>
