<svg width="141" height="98" viewBox="0 0 141 98" fill="none" xmlns="http://www.w3.org/2000/svg">
<path d="M123.409 0H17.6198C8.17636 0 0.499969 7.0609 0.499969 15.7471V82.2529C0.499969 90.9391 8.17636 98 17.6198 98H123.38C132.824 98 140.5 90.9391 140.5 82.2529V15.7738C140.529 7.08755 132.853 0 123.409 0ZM132.708 82.2529C132.708 86.969 128.536 90.8059 123.409 90.8059H17.6198C12.4925 90.8059 8.3212 86.969 8.3212 82.2529V15.7738C8.3212 11.0576 12.4925 7.22077 17.6198 7.22077H123.38C128.507 7.22077 132.679 11.0576 132.679 15.7738V82.2529H132.708Z" fill="white" fill-opacity="0.4"/>
<path d="M88.793 48.1741L123.033 19.9305C124.626 18.5982 124.771 16.3334 123.322 14.8413C121.874 13.3758 119.412 13.2426 117.789 14.5748L70.5724 53.5564L61.3607 45.9892C61.3318 45.9626 61.3028 45.9359 61.3028 45.9093C61.1 45.7228 60.8972 45.5629 60.6655 45.403L23.1815 14.5482C21.5594 13.2159 19.0971 13.3492 17.6487 14.8413C16.2004 16.3334 16.3452 18.5982 17.9674 19.9305L52.6125 48.4139L18.1122 78.123C16.548 79.4819 16.4611 81.7467 17.9384 83.2121C18.7205 83.9582 19.7634 84.3579 20.8062 84.3579C21.7621 84.3579 22.7181 84.0381 23.4712 83.3987L58.4929 53.2633L67.9943 61.0702C68.7474 61.6831 69.6744 61.9762 70.6014 61.9762C71.5283 61.9762 72.4842 61.6564 73.2084 61.0436L82.9705 52.9968L117.789 83.4253C118.543 84.0914 119.527 84.4112 120.483 84.4112C121.526 84.4112 122.54 84.0381 123.322 83.2921C124.8 81.8533 124.742 79.5618 123.177 78.2029L88.793 48.1741Z" fill="white" fill-opacity="0.4"/>
</svg>
